# xmcd
#
# Track frame offsets: 
#        150
#        14079
#        26896
#        42408
#        59120
#        77279
#        92282
#        108135
#        124246
#        139214
#        156596
#        169398
#        185673
#
# Disc length: 2684 seconds
#
# Revision: 0
# Processed by: cddbd v1.5.2PL0 Copyright (c) Steve Scherf et al.
# Submitted via: ExactAudioCopy v0.95b4
#
DISCID=b70a7a0d
DTITLE=ZZ Ward - Til The Casket Drops
DYEAR=2012
DGENRE=Alt. Country
TTITLE0=01 Til The Casket Drops
TTITLE1=02 Put The Gun Down
TTITLE2=03 Blue Eyes Blind
TTITLE3=04 Home
TTITLE4=05 Cryin' Wolf (feat Kendrick Lamar)
TTITLE5=06 Save My Life
TTITLE6=07 Last Love Song
TTITLE7=08 Lil Darlin (feat The O'Mys)
TTITLE8=09 Move Like You Stole It
TTITLE9=10 Criminal (feat Freddie Gibbs)
TTITLE10=11 If I Could Be Her
TTITLE11=12 Charlie Ain't Home
TTITLE12=13 365 Days
EXTD=
EXTT0=
EXTT1=
EXTT2=
EXTT3=
EXTT4=
EXTT5=
EXTT6=
EXTT7=
EXTT8=
EXTT9=
EXTT10=
EXTT11=
EXTT12=
PLAYORDER=
